<?xml version="1.0" standalone="no"?>
<!DOCTYPE svg PUBLIC "-//W3C//DTD SVG 20010904//EN"
 "http://www.w3.org/TR/2001/REC-SVG-20010904/DTD/svg10.dtd">
<svg version="1.0" xmlns="http://www.w3.org/2000/svg"
 width="928.000000pt" height="928.000000pt" viewBox="0 0 928.000000 928.000000"
 preserveAspectRatio="xMidYMid meet">
<metadata>
Created by potrace 1.11, written by Peter Selinger 2001-2013
</metadata>
<g transform="translate(0.000000,928.000000) scale(0.100000,-0.100000)"
fill="#000000" stroke="none">
<path d="M4595 8383 c-22 -8 -393 -127 -825 -264 -432 -138 -1037 -331 -1345
-429 -1643 -524 -2143 -683 -2267 -722 -76 -24 -138 -45 -138 -48 0 -7 -17 -1
890 -290 366 -116 749 -239 852 -272 l188 -60 2 -2235 3 -2236 680 -473 c374
-260 683 -473 688 -473 4 -1 7 564 7 1255 0 1001 3 1255 13 1251 6 -2 95 -30
196 -61 101 -31 366 -113 590 -182 223 -70 436 -135 474 -147 l67 -20 463 147
c254 81 536 171 627 200 l165 52 3 -1248 c1 -686 5 -1248 10 -1247 4 0 313
213 687 473 l680 473 5 2234 5 2233 260 83 c143 46 263 83 268 83 4 0 7 -357
7 -793 l0 -792 -85 -85 -85 -85 162 -162 163 -163 157 157 c87 87 158 162 158
168 0 6 -38 48 -85 95 l-85 85 0 837 0 837 218 70 c274 88 667 214 795 254 53
17 97 33 97 36 0 3 -62 25 -138 49 -124 39 -603 192 -2267 722 -308 98 -866
276 -1240 395 -374 119 -741 236 -816 260 -74 24 -142 46 -150 48 -7 3 -32 -2
-54 -10z m-720 -2699 c253 -80 529 -168 613 -194 l153 -49 267 86 c147 46 435
138 641 204 205 65 376 117 380 115 3 -2 5 -233 3 -513 l-2 -509 -650 -206
-650 -205 -357 112 c-197 63 -490 155 -650 206 l-293 93 0 517 0 518 43 -14
c23 -8 249 -80 502 -161z"/>
</g>
</svg>
